<mxfile host="app.diagrams.net" modified="2024-01-10T00:28:07.357Z" agent="Mozilla/5.0 (Windows NT 10.0; Win64; x64) AppleWebKit/537.36 (KHTML, like Gecko) Chrome/120.0.0.0 Safari/537.36" etag="SwOfRORrf-Mx_Yn-9dH5" version="22.1.17" type="github">
  <diagram id="R2lEEEUBdFMjLlhIrx00" name="Page-1">
    <mxGraphModel dx="2173" dy="1787" grid="1" gridSize="10" guides="1" tooltips="1" connect="1" arrows="1" fold="1" page="1" pageScale="1" pageWidth="850" pageHeight="1100" math="0" shadow="0" extFonts="Permanent Marker^https://fonts.googleapis.com/css?family=Permanent+Marker">
      <root>
        <mxCell id="0" />
        <mxCell id="1" parent="0" />
        <mxCell id="3Bs7lHJJWiF-RkxHanO7-269" value="PRODUCTO" style="html=1;overflow=block;blockSpacing=1;swimlane;resizeParent=1;resizeParentMax=0;resizeLast=0;collapsible=0;marginBottom=0;swimlaneFillColor=#ffffff;startSize=31.5;whiteSpace=wrap;fontSize=20;fontColor=#333333;fontStyle=1;align=center;spacing=0;strokeColor=#5e5e5e;strokeOpacity=100;rounded=1;absoluteArcSize=1;arcSize=9;strokeWidth=2.3;" vertex="1" parent="1">
          <mxGeometry x="-780" y="20" width="285" height="180" as="geometry" />
        </mxCell>
        <mxCell id="3Bs7lHJJWiF-RkxHanO7-270" value="#PK" style="strokeColor=none;part=1;resizeHeight=0;verticalAlign=top;spacingLeft=4;spacingRight=4;overflow=hidden;rotatable=0;points=[[0,0.5],[1,0.5]];portConstraint=eastwest;html=1;swimlaneFillColor=#ffffff;whiteSpace=wrap;fontSize=16.7;fontColor=#333333;align=center;fillColor=none;strokeOpacity=100;" vertex="1" parent="3Bs7lHJJWiF-RkxHanO7-269">
          <mxGeometry y="31.5" width="30" height="27.75" as="geometry" />
        </mxCell>
        <mxCell id="3Bs7lHJJWiF-RkxHanO7-271" value="id (Autoincreme): Int" style="shape=partialRectangle;top=0;right=0;bottom=0;part=1;resizeHeight=0;verticalAlign=top;spacingLeft=4;spacingRight=4;overflow=hidden;rotatable=0;points=[[0,0.5],[1,0.5]];portConstraint=eastwest;html=1;swimlaneFillColor=#ffffff;whiteSpace=wrap;fontSize=18.3;fontColor=#333333;align=center;fillColor=none;strokeOpacity=100;" vertex="1" parent="3Bs7lHJJWiF-RkxHanO7-269">
          <mxGeometry x="30" y="31.5" width="255" height="29.25" as="geometry" />
        </mxCell>
        <mxCell id="3Bs7lHJJWiF-RkxHanO7-272" value="*" style="strokeColor=none;part=1;resizeHeight=0;verticalAlign=top;spacingLeft=4;spacingRight=4;overflow=hidden;rotatable=0;points=[[0,0.5],[1,0.5]];portConstraint=eastwest;html=1;swimlaneFillColor=#ffffff;whiteSpace=wrap;fontSize=26.7;fontColor=#333333;align=center;fillColor=none;strokeOpacity=100;" vertex="1" parent="3Bs7lHJJWiF-RkxHanO7-269">
          <mxGeometry y="59.25" width="30" height="39.75" as="geometry" />
        </mxCell>
        <mxCell id="3Bs7lHJJWiF-RkxHanO7-273" value="descripcion : String" style="shape=partialRectangle;top=0;right=0;bottom=0;part=1;resizeHeight=0;verticalAlign=top;spacingLeft=4;spacingRight=4;overflow=hidden;rotatable=0;points=[[0,0.5],[1,0.5]];portConstraint=eastwest;html=1;swimlaneFillColor=#ffffff;whiteSpace=wrap;fontSize=18.3;fontColor=#333333;align=center;fillColor=none;strokeOpacity=100;" vertex="1" parent="3Bs7lHJJWiF-RkxHanO7-269">
          <mxGeometry x="30" y="59.25" width="255" height="29.25" as="geometry" />
        </mxCell>
        <mxCell id="3Bs7lHJJWiF-RkxHanO7-274" value="*" style="strokeColor=none;part=1;resizeHeight=0;align=center;verticalAlign=top;spacingLeft=4;spacingRight=4;overflow=hidden;rotatable=0;points=[[0,0.5],[1,0.5]];portConstraint=eastwest;html=1;swimlaneFillColor=#ffffff;whiteSpace=wrap;fontSize=26.8;fillColor=none;strokeOpacity=100;" vertex="1" parent="3Bs7lHJJWiF-RkxHanO7-269">
          <mxGeometry y="99" width="30" height="39.75" as="geometry" />
        </mxCell>
        <mxCell id="3Bs7lHJJWiF-RkxHanO7-275" value="rubro : String" style="shape=partialRectangle;top=0;right=0;bottom=0;part=1;resizeHeight=0;verticalAlign=top;spacingLeft=4;spacingRight=4;overflow=hidden;rotatable=0;points=[[0,0.5],[1,0.5]];portConstraint=eastwest;html=1;swimlaneFillColor=#ffffff;whiteSpace=wrap;fontSize=18.5;align=center;fillColor=none;strokeOpacity=100;" vertex="1" parent="3Bs7lHJJWiF-RkxHanO7-269">
          <mxGeometry x="30" y="99" width="255" height="30" as="geometry" />
        </mxCell>
        <mxCell id="3Bs7lHJJWiF-RkxHanO7-276" value="Â°" style="strokeColor=none;part=1;resizeHeight=0;align=center;verticalAlign=top;spacingLeft=4;spacingRight=4;overflow=hidden;rotatable=0;points=[[0,0.5],[1,0.5]];portConstraint=eastwest;html=1;swimlaneFillColor=#ffffff;whiteSpace=wrap;fontSize=26.8;fillColor=none;strokeOpacity=100;" vertex="1" parent="3Bs7lHJJWiF-RkxHanO7-269">
          <mxGeometry y="138.75" width="30" height="39.75" as="geometry" />
        </mxCell>
        <mxCell id="3Bs7lHJJWiF-RkxHanO7-277" value="valor_vigente : double" style="shape=partialRectangle;top=0;right=0;bottom=0;part=1;resizeHeight=0;verticalAlign=top;spacingLeft=4;spacingRight=4;overflow=hidden;rotatable=0;points=[[0,0.5],[1,0.5]];portConstraint=eastwest;html=1;swimlaneFillColor=#ffffff;whiteSpace=wrap;fontSize=18.5;align=center;fillColor=none;strokeOpacity=100;" vertex="1" parent="3Bs7lHJJWiF-RkxHanO7-269">
          <mxGeometry x="30" y="138.75" width="255" height="30" as="geometry" />
        </mxCell>
        <mxCell id="3Bs7lHJJWiF-RkxHanO7-278" value="COTIZACION" style="html=1;overflow=block;blockSpacing=1;swimlane;resizeParent=1;resizeParentMax=0;resizeLast=0;collapsible=0;marginBottom=0;swimlaneFillColor=#ffffff;startSize=31.5;whiteSpace=wrap;fontSize=20;fontColor=#333333;fontStyle=1;align=center;spacing=0;strokeColor=#5e5e5e;strokeOpacity=100;rounded=1;absoluteArcSize=1;arcSize=9;strokeWidth=2.3;" vertex="1" parent="1">
          <mxGeometry x="-30" width="330" height="250" as="geometry" />
        </mxCell>
        <mxCell id="3Bs7lHJJWiF-RkxHanO7-279" value="#PK" style="strokeColor=none;part=1;resizeHeight=0;verticalAlign=top;spacingLeft=4;spacingRight=4;overflow=hidden;rotatable=0;points=[[0,0.5],[1,0.5]];portConstraint=eastwest;html=1;swimlaneFillColor=#ffffff;whiteSpace=wrap;fontSize=16.7;fontColor=#333333;align=center;fillColor=none;strokeOpacity=100;" vertex="1" parent="3Bs7lHJJWiF-RkxHanO7-278">
          <mxGeometry y="31.5" width="30" height="27.75" as="geometry" />
        </mxCell>
        <mxCell id="3Bs7lHJJWiF-RkxHanO7-280" value="id (Autoincreme): Int" style="shape=partialRectangle;top=0;right=0;bottom=0;part=1;resizeHeight=0;verticalAlign=top;spacingLeft=4;spacingRight=4;overflow=hidden;rotatable=0;points=[[0,0.5],[1,0.5]];portConstraint=eastwest;html=1;swimlaneFillColor=#ffffff;whiteSpace=wrap;fontSize=18.3;fontColor=#333333;align=center;fillColor=none;strokeOpacity=100;" vertex="1" parent="3Bs7lHJJWiF-RkxHanO7-278">
          <mxGeometry x="30" y="31.5" width="255" height="29.25" as="geometry" />
        </mxCell>
        <mxCell id="3Bs7lHJJWiF-RkxHanO7-281" value="*" style="strokeColor=none;part=1;resizeHeight=0;verticalAlign=top;spacingLeft=4;spacingRight=4;overflow=hidden;rotatable=0;points=[[0,0.5],[1,0.5]];portConstraint=eastwest;html=1;swimlaneFillColor=#ffffff;whiteSpace=wrap;fontSize=26.7;fontColor=#333333;align=center;fillColor=none;strokeOpacity=100;" vertex="1" parent="3Bs7lHJJWiF-RkxHanO7-278">
          <mxGeometry y="70" width="30" height="29" as="geometry" />
        </mxCell>
        <mxCell id="3Bs7lHJJWiF-RkxHanO7-285" value="*" style="strokeColor=none;part=1;resizeHeight=0;align=center;verticalAlign=top;spacingLeft=4;spacingRight=4;overflow=hidden;rotatable=0;points=[[0,0.5],[1,0.5]];portConstraint=eastwest;html=1;swimlaneFillColor=#ffffff;whiteSpace=wrap;fontSize=26.8;fillColor=none;strokeOpacity=100;" vertex="1" parent="3Bs7lHJJWiF-RkxHanO7-278">
          <mxGeometry y="100" width="30" height="40" as="geometry" />
        </mxCell>
        <mxCell id="3Bs7lHJJWiF-RkxHanO7-286" value="fecha :Date" style="shape=partialRectangle;top=0;right=0;bottom=0;part=1;resizeHeight=0;verticalAlign=top;spacingLeft=4;spacingRight=4;overflow=hidden;rotatable=0;points=[[0,0.5],[1,0.5]];portConstraint=eastwest;html=1;swimlaneFillColor=#ffffff;whiteSpace=wrap;fontSize=18.5;align=center;fillColor=none;strokeOpacity=100;" vertex="1" parent="3Bs7lHJJWiF-RkxHanO7-278">
          <mxGeometry x="30" y="100" width="255" height="30" as="geometry" />
        </mxCell>
        <mxCell id="3Bs7lHJJWiF-RkxHanO7-296" value="productos : Cantidad_Productos[ ]&amp;nbsp;" style="shape=partialRectangle;top=0;right=0;bottom=0;part=1;resizeHeight=0;verticalAlign=top;spacingLeft=4;spacingRight=4;overflow=hidden;rotatable=0;points=[[0,0.5],[1,0.5]];portConstraint=eastwest;html=1;swimlaneFillColor=#ffffff;whiteSpace=wrap;fontSize=18.5;align=center;fillColor=none;strokeOpacity=100;" vertex="1" parent="3Bs7lHJJWiF-RkxHanO7-278">
          <mxGeometry x="30" y="66.5" width="310" height="30" as="geometry" />
        </mxCell>
        <mxCell id="3Bs7lHJJWiF-RkxHanO7-422" value="estado : enum" style="shape=partialRectangle;top=0;right=0;bottom=0;part=1;resizeHeight=0;verticalAlign=top;spacingLeft=4;spacingRight=4;overflow=hidden;rotatable=0;points=[[0,0.5],[1,0.5]];portConstraint=eastwest;html=1;swimlaneFillColor=#ffffff;whiteSpace=wrap;fontSize=18.5;align=center;fillColor=none;strokeOpacity=100;" vertex="1" parent="3Bs7lHJJWiF-RkxHanO7-278">
          <mxGeometry x="30" y="130" width="255" height="30" as="geometry" />
        </mxCell>
        <mxCell id="3Bs7lHJJWiF-RkxHanO7-423" value="*" style="strokeColor=none;part=1;resizeHeight=0;align=center;verticalAlign=top;spacingLeft=4;spacingRight=4;overflow=hidden;rotatable=0;points=[[0,0.5],[1,0.5]];portConstraint=eastwest;html=1;swimlaneFillColor=#ffffff;whiteSpace=wrap;fontSize=26.8;fillColor=none;strokeOpacity=100;" vertex="1" parent="3Bs7lHJJWiF-RkxHanO7-278">
          <mxGeometry y="130" width="30" height="40" as="geometry" />
        </mxCell>
        <mxCell id="3Bs7lHJJWiF-RkxHanO7-424" value="entidad: Entidad" style="shape=partialRectangle;top=0;right=0;bottom=0;part=1;resizeHeight=0;verticalAlign=top;spacingLeft=4;spacingRight=4;overflow=hidden;rotatable=0;points=[[0,0.5],[1,0.5]];portConstraint=eastwest;html=1;swimlaneFillColor=#ffffff;whiteSpace=wrap;fontSize=18.5;align=center;fillColor=none;strokeOpacity=100;" vertex="1" parent="3Bs7lHJJWiF-RkxHanO7-278">
          <mxGeometry x="30" y="160" width="255" height="30" as="geometry" />
        </mxCell>
        <mxCell id="3Bs7lHJJWiF-RkxHanO7-425" value="*" style="strokeColor=none;part=1;resizeHeight=0;align=center;verticalAlign=top;spacingLeft=4;spacingRight=4;overflow=hidden;rotatable=0;points=[[0,0.5],[1,0.5]];portConstraint=eastwest;html=1;swimlaneFillColor=#ffffff;whiteSpace=wrap;fontSize=26.8;fillColor=none;strokeOpacity=100;" vertex="1" parent="3Bs7lHJJWiF-RkxHanO7-278">
          <mxGeometry y="160" width="30" height="40" as="geometry" />
        </mxCell>
        <mxCell id="3Bs7lHJJWiF-RkxHanO7-426" value="usuario: Usuario" style="shape=partialRectangle;top=0;right=0;bottom=0;part=1;resizeHeight=0;verticalAlign=top;spacingLeft=4;spacingRight=4;overflow=hidden;rotatable=0;points=[[0,0.5],[1,0.5]];portConstraint=eastwest;html=1;swimlaneFillColor=#ffffff;whiteSpace=wrap;fontSize=18.5;align=center;fillColor=none;strokeOpacity=100;" vertex="1" parent="3Bs7lHJJWiF-RkxHanO7-278">
          <mxGeometry x="30" y="189" width="255" height="30" as="geometry" />
        </mxCell>
        <mxCell id="3Bs7lHJJWiF-RkxHanO7-427" value="*" style="strokeColor=none;part=1;resizeHeight=0;align=center;verticalAlign=top;spacingLeft=4;spacingRight=4;overflow=hidden;rotatable=0;points=[[0,0.5],[1,0.5]];portConstraint=eastwest;html=1;swimlaneFillColor=#ffffff;whiteSpace=wrap;fontSize=26.8;fillColor=none;strokeOpacity=100;" vertex="1" parent="3Bs7lHJJWiF-RkxHanO7-278">
          <mxGeometry y="189" width="30" height="40" as="geometry" />
        </mxCell>
        <mxCell id="3Bs7lHJJWiF-RkxHanO7-454" value="valor_total: double" style="shape=partialRectangle;top=0;right=0;bottom=0;part=1;resizeHeight=0;verticalAlign=top;spacingLeft=4;spacingRight=4;overflow=hidden;rotatable=0;points=[[0,0.5],[1,0.5]];portConstraint=eastwest;html=1;swimlaneFillColor=#ffffff;whiteSpace=wrap;fontSize=18.5;align=center;fillColor=none;strokeOpacity=100;" vertex="1" parent="3Bs7lHJJWiF-RkxHanO7-278">
          <mxGeometry x="30" y="215" width="255" height="30" as="geometry" />
        </mxCell>
        <mxCell id="3Bs7lHJJWiF-RkxHanO7-455" value="Â°" style="strokeColor=none;part=1;resizeHeight=0;align=center;verticalAlign=top;spacingLeft=4;spacingRight=4;overflow=hidden;rotatable=0;points=[[0,0.5],[1,0.5]];portConstraint=eastwest;html=1;swimlaneFillColor=#ffffff;whiteSpace=wrap;fontSize=26.8;fillColor=none;strokeOpacity=100;" vertex="1" parent="3Bs7lHJJWiF-RkxHanO7-278">
          <mxGeometry y="220" width="30" height="45" as="geometry" />
        </mxCell>
        <mxCell id="3Bs7lHJJWiF-RkxHanO7-306" value="ENTIDAD" style="html=1;overflow=block;blockSpacing=1;swimlane;resizeParent=1;resizeParentMax=0;resizeLast=0;collapsible=0;marginBottom=0;swimlaneFillColor=#ffffff;startSize=33.75;whiteSpace=wrap;fontSize=21.7;fontColor=#333333;fontStyle=1;align=center;spacing=0;strokeColor=#5e5e5e;strokeOpacity=100;rounded=1;absoluteArcSize=1;arcSize=9;strokeWidth=0.8;" vertex="1" parent="1">
          <mxGeometry x="-790" y="360" width="255" height="700" as="geometry" />
        </mxCell>
        <mxCell id="3Bs7lHJJWiF-RkxHanO7-307" value="#PK" style="strokeColor=none;part=1;resizeHeight=0;verticalAlign=top;spacingLeft=4;spacingRight=4;overflow=hidden;rotatable=0;points=[[0,0.5],[1,0.5]];portConstraint=eastwest;html=1;swimlaneFillColor=#ffffff;whiteSpace=wrap;fontSize=18.3;fontColor=#333333;align=center;fillColor=none;strokeOpacity=100;" vertex="1" parent="3Bs7lHJJWiF-RkxHanO7-306">
          <mxGeometry y="33.75" width="30" height="29.25" as="geometry" />
        </mxCell>
        <mxCell id="3Bs7lHJJWiF-RkxHanO7-308" value="id (Autoincreme) : Int" style="shape=partialRectangle;top=0;right=0;bottom=0;part=1;resizeHeight=0;verticalAlign=top;spacingLeft=4;spacingRight=4;overflow=hidden;rotatable=0;points=[[0,0.5],[1,0.5]];portConstraint=eastwest;html=1;swimlaneFillColor=#ffffff;whiteSpace=wrap;fontSize=16.7;fontColor=#333333;align=center;fillColor=none;strokeOpacity=100;" vertex="1" parent="3Bs7lHJJWiF-RkxHanO7-306">
          <mxGeometry x="30" y="33.75" width="225" height="27.75" as="geometry" />
        </mxCell>
        <mxCell id="3Bs7lHJJWiF-RkxHanO7-309" value="*" style="strokeColor=none;part=1;resizeHeight=0;verticalAlign=top;spacingLeft=4;spacingRight=4;overflow=hidden;rotatable=0;points=[[0,0.5],[1,0.5]];portConstraint=eastwest;html=1;swimlaneFillColor=#ffffff;whiteSpace=wrap;fontSize=26.8;align=center;fillColor=none;strokeOpacity=100;" vertex="1" parent="3Bs7lHJJWiF-RkxHanO7-306">
          <mxGeometry y="63" width="30" height="39.75" as="geometry" />
        </mxCell>
        <mxCell id="3Bs7lHJJWiF-RkxHanO7-310" value="nombre : String" style="shape=partialRectangle;top=0;right=0;bottom=0;part=1;resizeHeight=0;verticalAlign=top;spacingLeft=4;spacingRight=4;overflow=hidden;rotatable=0;points=[[0,0.5],[1,0.5]];portConstraint=eastwest;html=1;swimlaneFillColor=#ffffff;whiteSpace=wrap;fontSize=16.7;fontColor=#333333;align=center;fillColor=none;strokeOpacity=100;" vertex="1" parent="3Bs7lHJJWiF-RkxHanO7-306">
          <mxGeometry x="30" y="63" width="225" height="27.75" as="geometry" />
        </mxCell>
        <mxCell id="3Bs7lHJJWiF-RkxHanO7-311" value="*" style="strokeColor=none;part=1;resizeHeight=0;verticalAlign=top;spacingLeft=4;spacingRight=4;overflow=hidden;rotatable=0;points=[[0,0.5],[1,0.5]];portConstraint=eastwest;html=1;swimlaneFillColor=#ffffff;whiteSpace=wrap;fontSize=26.8;align=center;fillColor=none;strokeOpacity=100;" vertex="1" parent="3Bs7lHJJWiF-RkxHanO7-306">
          <mxGeometry y="102.75" width="30" height="39.75" as="geometry" />
        </mxCell>
        <mxCell id="3Bs7lHJJWiF-RkxHanO7-312" value="nit : String" style="shape=partialRectangle;top=0;right=0;bottom=0;part=1;resizeHeight=0;verticalAlign=top;spacingLeft=4;spacingRight=4;overflow=hidden;rotatable=0;points=[[0,0.5],[1,0.5]];portConstraint=eastwest;html=1;swimlaneFillColor=#ffffff;whiteSpace=wrap;fontSize=16.7;fontColor=#333333;align=center;fillColor=none;strokeOpacity=100;" vertex="1" parent="3Bs7lHJJWiF-RkxHanO7-306">
          <mxGeometry x="30" y="102.75" width="225" height="27.75" as="geometry" />
        </mxCell>
        <mxCell id="3Bs7lHJJWiF-RkxHanO7-313" value="Â°" style="strokeColor=none;part=1;resizeHeight=0;align=center;verticalAlign=top;spacingLeft=4;spacingRight=4;overflow=hidden;rotatable=0;points=[[0,0.5],[1,0.5]];portConstraint=eastwest;html=1;swimlaneFillColor=#ffffff;whiteSpace=wrap;fontSize=26.8;fillColor=none;strokeOpacity=100;" vertex="1" parent="3Bs7lHJJWiF-RkxHanO7-306">
          <mxGeometry y="142.5" width="30" height="39.75" as="geometry" />
        </mxCell>
        <mxCell id="3Bs7lHJJWiF-RkxHanO7-314" value="direccion : String" style="shape=partialRectangle;top=0;right=0;bottom=0;part=1;resizeHeight=0;verticalAlign=top;spacingLeft=4;spacingRight=4;overflow=hidden;rotatable=0;points=[[0,0.5],[1,0.5]];portConstraint=eastwest;html=1;swimlaneFillColor=#ffffff;whiteSpace=wrap;fontSize=16.8;align=center;fillColor=none;strokeOpacity=100;" vertex="1" parent="3Bs7lHJJWiF-RkxHanO7-306">
          <mxGeometry x="30" y="142.5" width="225" height="27.75" as="geometry" />
        </mxCell>
        <mxCell id="3Bs7lHJJWiF-RkxHanO7-315" value="Â°" style="strokeColor=none;part=1;resizeHeight=0;align=center;verticalAlign=top;spacingLeft=4;spacingRight=4;overflow=hidden;rotatable=0;points=[[0,0.5],[1,0.5]];portConstraint=eastwest;html=1;swimlaneFillColor=#ffffff;whiteSpace=wrap;fontSize=26.8;fillColor=none;strokeOpacity=100;" vertex="1" parent="3Bs7lHJJWiF-RkxHanO7-306">
          <mxGeometry y="182.25" width="30" height="39.75" as="geometry" />
        </mxCell>
        <mxCell id="3Bs7lHJJWiF-RkxHanO7-316" value="telefono : String" style="shape=partialRectangle;top=0;right=0;bottom=0;part=1;resizeHeight=0;verticalAlign=top;spacingLeft=4;spacingRight=4;overflow=hidden;rotatable=0;points=[[0,0.5],[1,0.5]];portConstraint=eastwest;html=1;swimlaneFillColor=#ffffff;whiteSpace=wrap;fontSize=16.8;align=center;fillColor=none;strokeOpacity=100;" vertex="1" parent="3Bs7lHJJWiF-RkxHanO7-306">
          <mxGeometry x="30" y="182.25" width="225" height="27.75" as="geometry" />
        </mxCell>
        <mxCell id="3Bs7lHJJWiF-RkxHanO7-317" value="*" style="strokeColor=none;part=1;resizeHeight=0;align=center;verticalAlign=top;spacingLeft=4;spacingRight=4;overflow=hidden;rotatable=0;points=[[0,0.5],[1,0.5]];portConstraint=eastwest;html=1;swimlaneFillColor=#ffffff;whiteSpace=wrap;fontSize=26.8;fillColor=none;strokeOpacity=100;" vertex="1" parent="3Bs7lHJJWiF-RkxHanO7-306">
          <mxGeometry y="222" width="30" height="39.75" as="geometry" />
        </mxCell>
        <mxCell id="3Bs7lHJJWiF-RkxHanO7-318" value="municipio : String" style="shape=partialRectangle;top=0;right=0;bottom=0;part=1;resizeHeight=0;verticalAlign=top;spacingLeft=4;spacingRight=4;overflow=hidden;rotatable=0;points=[[0,0.5],[1,0.5]];portConstraint=eastwest;html=1;swimlaneFillColor=#ffffff;whiteSpace=wrap;fontSize=16.8;align=center;fillColor=none;strokeOpacity=100;" vertex="1" parent="3Bs7lHJJWiF-RkxHanO7-306">
          <mxGeometry x="30" y="222" width="225" height="27.75" as="geometry" />
        </mxCell>
        <mxCell id="3Bs7lHJJWiF-RkxHanO7-319" value="*" style="strokeColor=none;part=1;resizeHeight=0;align=center;verticalAlign=top;spacingLeft=4;spacingRight=4;overflow=hidden;rotatable=0;points=[[0,0.5],[1,0.5]];portConstraint=eastwest;html=1;swimlaneFillColor=#ffffff;whiteSpace=wrap;fontSize=26.8;fillColor=none;strokeOpacity=100;" vertex="1" parent="3Bs7lHJJWiF-RkxHanO7-306">
          <mxGeometry y="261.75" width="30" height="39.75" as="geometry" />
        </mxCell>
        <mxCell id="3Bs7lHJJWiF-RkxHanO7-320" value="departamento : String" style="shape=partialRectangle;top=0;right=0;bottom=0;part=1;resizeHeight=0;verticalAlign=top;spacingLeft=4;spacingRight=4;overflow=hidden;rotatable=0;points=[[0,0.5],[1,0.5]];portConstraint=eastwest;html=1;swimlaneFillColor=#ffffff;whiteSpace=wrap;fontSize=16.8;align=center;fillColor=none;strokeOpacity=100;" vertex="1" parent="3Bs7lHJJWiF-RkxHanO7-306">
          <mxGeometry x="30" y="261.75" width="225" height="27.75" as="geometry" />
        </mxCell>
        <mxCell id="3Bs7lHJJWiF-RkxHanO7-321" value="*" style="strokeColor=none;part=1;resizeHeight=0;align=center;verticalAlign=top;spacingLeft=4;spacingRight=4;overflow=hidden;rotatable=0;points=[[0,0.5],[1,0.5]];portConstraint=eastwest;html=1;swimlaneFillColor=#ffffff;whiteSpace=wrap;fontSize=20.2;fillColor=none;strokeOpacity=100;" vertex="1" parent="3Bs7lHJJWiF-RkxHanO7-306">
          <mxGeometry y="301.5" width="30" height="31.5" as="geometry" />
        </mxCell>
        <mxCell id="3Bs7lHJJWiF-RkxHanO7-322" value="pais : String" style="shape=partialRectangle;top=0;right=0;bottom=0;part=1;resizeHeight=0;verticalAlign=top;spacingLeft=4;spacingRight=4;overflow=hidden;rotatable=0;points=[[0,0.5],[1,0.5]];portConstraint=eastwest;html=1;swimlaneFillColor=#ffffff;whiteSpace=wrap;fontSize=16.8;align=center;fillColor=none;strokeOpacity=100;" vertex="1" parent="3Bs7lHJJWiF-RkxHanO7-306">
          <mxGeometry x="30" y="301.5" width="225" height="27.75" as="geometry" />
        </mxCell>
        <mxCell id="3Bs7lHJJWiF-RkxHanO7-323" value="Â°" style="strokeColor=none;part=1;resizeHeight=0;align=center;verticalAlign=top;spacingLeft=4;spacingRight=4;overflow=hidden;rotatable=0;points=[[0,0.5],[1,0.5]];portConstraint=eastwest;html=1;swimlaneFillColor=#ffffff;whiteSpace=wrap;fontSize=26.8;fillColor=none;strokeOpacity=100;" vertex="1" parent="3Bs7lHJJWiF-RkxHanO7-306">
          <mxGeometry y="333" width="30" height="39.75" as="geometry" />
        </mxCell>
        <mxCell id="3Bs7lHJJWiF-RkxHanO7-324" value="web : String" style="shape=partialRectangle;top=0;right=0;bottom=0;part=1;resizeHeight=0;verticalAlign=top;spacingLeft=4;spacingRight=4;overflow=hidden;rotatable=0;points=[[0,0.5],[1,0.5]];portConstraint=eastwest;html=1;swimlaneFillColor=#ffffff;whiteSpace=wrap;fontSize=16.8;align=center;fillColor=none;strokeOpacity=100;" vertex="1" parent="3Bs7lHJJWiF-RkxHanO7-306">
          <mxGeometry x="30" y="333" width="225" height="27.75" as="geometry" />
        </mxCell>
        <mxCell id="3Bs7lHJJWiF-RkxHanO7-325" value="&lt;div style=&quot;display: flex; justify-content: center; text-align: center; align-items: baseline; font-size: 0; line-height: 1.25;margin-top: -2px;&quot;&gt;&lt;span&gt;Â°&lt;br&gt;&lt;/span&gt;&lt;/div&gt;" style="strokeColor=none;part=1;resizeHeight=0;align=center;verticalAlign=top;spacingLeft=4;spacingRight=4;overflow=hidden;rotatable=0;points=[[0,0.5],[1,0.5]];portConstraint=eastwest;html=1;swimlaneFillColor=#ffffff;whiteSpace=wrap;fontSize=26.8;fillColor=none;strokeOpacity=100;" vertex="1" parent="3Bs7lHJJWiF-RkxHanO7-306">
          <mxGeometry y="372.75" width="30" height="39.75" as="geometry" />
        </mxCell>
        <mxCell id="3Bs7lHJJWiF-RkxHanO7-327" value="*" style="strokeColor=none;part=1;resizeHeight=0;align=center;verticalAlign=top;spacingLeft=4;spacingRight=4;overflow=hidden;rotatable=0;points=[[0,0.5],[1,0.5]];portConstraint=eastwest;html=1;swimlaneFillColor=#ffffff;whiteSpace=wrap;fontSize=26.7;fillColor=none;strokeOpacity=100;" vertex="1" parent="3Bs7lHJJWiF-RkxHanO7-306">
          <mxGeometry y="412.5" width="30" height="39.75" as="geometry" />
        </mxCell>
        <mxCell id="3Bs7lHJJWiF-RkxHanO7-328" value="tipo : enum" style="shape=partialRectangle;top=0;right=0;bottom=0;part=1;resizeHeight=0;verticalAlign=top;spacingLeft=4;spacingRight=4;overflow=hidden;rotatable=0;points=[[0,0.5],[1,0.5]];portConstraint=eastwest;html=1;swimlaneFillColor=#ffffff;whiteSpace=wrap;fontSize=18.3;align=center;fillColor=none;strokeOpacity=100;" vertex="1" parent="3Bs7lHJJWiF-RkxHanO7-306">
          <mxGeometry x="30" y="412.5" width="225" height="29.25" as="geometry" />
        </mxCell>
        <mxCell id="3Bs7lHJJWiF-RkxHanO7-329" value="*" style="strokeColor=none;part=1;resizeHeight=0;align=center;verticalAlign=top;spacingLeft=4;spacingRight=4;overflow=hidden;rotatable=0;points=[[0,0.5],[1,0.5]];portConstraint=eastwest;html=1;swimlaneFillColor=#ffffff;whiteSpace=wrap;fontSize=26.8;fillColor=none;strokeOpacity=100;" vertex="1" parent="3Bs7lHJJWiF-RkxHanO7-306">
          <mxGeometry y="452.25" width="30" height="39.75" as="geometry" />
        </mxCell>
        <mxCell id="3Bs7lHJJWiF-RkxHanO7-330" value="encargado : Usuario" style="shape=partialRectangle;top=0;right=0;bottom=0;part=1;resizeHeight=0;verticalAlign=top;spacingLeft=4;spacingRight=4;overflow=hidden;rotatable=0;points=[[0,0.5],[1,0.5]];portConstraint=eastwest;html=1;swimlaneFillColor=#ffffff;whiteSpace=wrap;fontSize=16.8;align=center;fillColor=none;strokeOpacity=100;" vertex="1" parent="3Bs7lHJJWiF-RkxHanO7-306">
          <mxGeometry x="30" y="452.25" width="225" height="27.75" as="geometry" />
        </mxCell>
        <mxCell id="3Bs7lHJJWiF-RkxHanO7-331" value="*" style="strokeColor=none;part=1;resizeHeight=0;align=center;verticalAlign=top;spacingLeft=4;spacingRight=4;overflow=hidden;rotatable=0;points=[[0,0.5],[1,0.5]];portConstraint=eastwest;html=1;swimlaneFillColor=#ffffff;whiteSpace=wrap;fontSize=26.8;fillColor=none;strokeOpacity=100;" vertex="1" parent="3Bs7lHJJWiF-RkxHanO7-306">
          <mxGeometry y="492" width="30" height="39.75" as="geometry" />
        </mxCell>
        <mxCell id="3Bs7lHJJWiF-RkxHanO7-332" value="resolucion_posesion : String" style="shape=partialRectangle;top=0;right=0;bottom=0;part=1;resizeHeight=0;verticalAlign=top;spacingLeft=4;spacingRight=4;overflow=hidden;rotatable=0;points=[[0,0.5],[1,0.5]];portConstraint=eastwest;html=1;swimlaneFillColor=#ffffff;whiteSpace=wrap;fontSize=16.8;align=center;fillColor=none;strokeOpacity=100;" vertex="1" parent="3Bs7lHJJWiF-RkxHanO7-306">
          <mxGeometry x="30" y="492" width="225" height="27.75" as="geometry" />
        </mxCell>
        <mxCell id="3Bs7lHJJWiF-RkxHanO7-333" value="Â°" style="strokeColor=none;part=1;resizeHeight=0;align=center;verticalAlign=top;spacingLeft=4;spacingRight=4;overflow=hidden;rotatable=0;points=[[0,0.5],[1,0.5]];portConstraint=eastwest;html=1;swimlaneFillColor=#ffffff;whiteSpace=wrap;fontSize=26.8;fillColor=none;strokeOpacity=100;" vertex="1" parent="3Bs7lHJJWiF-RkxHanO7-306">
          <mxGeometry y="531.75" width="30" height="39.75" as="geometry" />
        </mxCell>
        <mxCell id="3Bs7lHJJWiF-RkxHanO7-334" value="fecha_posesion : String" style="shape=partialRectangle;top=0;right=0;bottom=0;part=1;resizeHeight=0;verticalAlign=top;spacingLeft=4;spacingRight=4;overflow=hidden;rotatable=0;points=[[0,0.5],[1,0.5]];portConstraint=eastwest;html=1;swimlaneFillColor=#ffffff;whiteSpace=wrap;fontSize=16.8;align=center;fillColor=none;strokeOpacity=100;" vertex="1" parent="3Bs7lHJJWiF-RkxHanO7-306">
          <mxGeometry x="30" y="531.75" width="225" height="27.75" as="geometry" />
        </mxCell>
        <mxCell id="3Bs7lHJJWiF-RkxHanO7-335" value="*" style="strokeColor=none;part=1;resizeHeight=0;align=center;verticalAlign=top;spacingLeft=4;spacingRight=4;overflow=hidden;rotatable=0;points=[[0,0.5],[1,0.5]];portConstraint=eastwest;html=1;swimlaneFillColor=#ffffff;whiteSpace=wrap;fontSize=26.8;fillColor=none;strokeOpacity=100;" vertex="1" parent="3Bs7lHJJWiF-RkxHanO7-306">
          <mxGeometry y="571.5" width="30" height="39.75" as="geometry" />
        </mxCell>
        <mxCell id="3Bs7lHJJWiF-RkxHanO7-336" value="estado : enum" style="shape=partialRectangle;top=0;right=0;bottom=0;part=1;resizeHeight=0;verticalAlign=top;spacingLeft=4;spacingRight=4;overflow=hidden;rotatable=0;points=[[0,0.5],[1,0.5]];portConstraint=eastwest;html=1;swimlaneFillColor=#ffffff;whiteSpace=wrap;fontSize=16.8;align=center;fillColor=none;strokeOpacity=100;" vertex="1" parent="3Bs7lHJJWiF-RkxHanO7-306">
          <mxGeometry x="30" y="571.5" width="225" height="27.75" as="geometry" />
        </mxCell>
        <mxCell id="3Bs7lHJJWiF-RkxHanO7-343" value="email: String" style="shape=partialRectangle;top=0;right=0;bottom=0;part=1;resizeHeight=0;verticalAlign=top;spacingLeft=4;spacingRight=4;overflow=hidden;rotatable=0;points=[[0,0.5],[1,0.5]];portConstraint=eastwest;html=1;swimlaneFillColor=#ffffff;whiteSpace=wrap;fontSize=16.8;align=center;fillColor=none;strokeOpacity=100;" vertex="1" parent="3Bs7lHJJWiF-RkxHanO7-306">
          <mxGeometry x="30" y="378" width="225" height="27.75" as="geometry" />
        </mxCell>
        <mxCell id="3Bs7lHJJWiF-RkxHanO7-344" value="Â°" style="strokeColor=none;part=1;resizeHeight=0;align=center;verticalAlign=top;spacingLeft=4;spacingRight=4;overflow=hidden;rotatable=0;points=[[0,0.5],[1,0.5]];portConstraint=eastwest;html=1;swimlaneFillColor=#ffffff;whiteSpace=wrap;fontSize=26.8;fillColor=none;strokeOpacity=100;" vertex="1" parent="3Bs7lHJJWiF-RkxHanO7-306">
          <mxGeometry y="378" width="30" height="39.75" as="geometry" />
        </mxCell>
        <mxCell id="3Bs7lHJJWiF-RkxHanO7-413" value="entidad_padre: Entidad" style="shape=partialRectangle;top=0;right=0;bottom=0;part=1;resizeHeight=0;verticalAlign=top;spacingLeft=4;spacingRight=4;overflow=hidden;rotatable=0;points=[[0,0.5],[1,0.5]];portConstraint=eastwest;html=1;swimlaneFillColor=#ffffff;whiteSpace=wrap;fontSize=16.8;align=center;fillColor=none;strokeOpacity=100;" vertex="1" parent="3Bs7lHJJWiF-RkxHanO7-306">
          <mxGeometry x="30" y="598" width="225" height="32" as="geometry" />
        </mxCell>
        <mxCell id="3Bs7lHJJWiF-RkxHanO7-429" value="Â°" style="strokeColor=none;part=1;resizeHeight=0;align=center;verticalAlign=top;spacingLeft=4;spacingRight=4;overflow=hidden;rotatable=0;points=[[0,0.5],[1,0.5]];portConstraint=eastwest;html=1;swimlaneFillColor=#ffffff;whiteSpace=wrap;fontSize=26.8;fillColor=none;strokeOpacity=100;" vertex="1" parent="3Bs7lHJJWiF-RkxHanO7-306">
          <mxGeometry y="600" width="30" height="39.75" as="geometry" />
        </mxCell>
        <mxCell id="3Bs7lHJJWiF-RkxHanO7-443" value="saldo_disponible: double" style="shape=partialRectangle;top=0;right=0;bottom=0;part=1;resizeHeight=0;verticalAlign=top;spacingLeft=4;spacingRight=4;overflow=hidden;rotatable=0;points=[[0,0.5],[1,0.5]];portConstraint=eastwest;html=1;swimlaneFillColor=#ffffff;whiteSpace=wrap;fontSize=16.8;align=center;fillColor=none;strokeOpacity=100;" vertex="1" parent="3Bs7lHJJWiF-RkxHanO7-306">
          <mxGeometry x="30" y="630" width="225" height="32" as="geometry" />
        </mxCell>
        <mxCell id="3Bs7lHJJWiF-RkxHanO7-444" value="Â°" style="strokeColor=none;part=1;resizeHeight=0;align=center;verticalAlign=top;spacingLeft=4;spacingRight=4;overflow=hidden;rotatable=0;points=[[0,0.5],[1,0.5]];portConstraint=eastwest;html=1;swimlaneFillColor=#ffffff;whiteSpace=wrap;fontSize=26.8;fillColor=none;strokeOpacity=100;" vertex="1" parent="3Bs7lHJJWiF-RkxHanO7-306">
          <mxGeometry y="630" width="30" height="39.75" as="geometry" />
        </mxCell>
        <mxCell id="3Bs7lHJJWiF-RkxHanO7-345" value="USUARIO" style="html=1;overflow=block;blockSpacing=1;swimlane;resizeParent=1;resizeParentMax=0;resizeLast=0;collapsible=0;marginBottom=0;swimlaneFillColor=#ffffff;startSize=33.75;whiteSpace=wrap;fontSize=21.7;fontColor=#333333;fontStyle=1;align=center;spacing=0;strokeColor=#5e5e5e;strokeOpacity=100;rounded=1;absoluteArcSize=1;arcSize=9;strokeWidth=0.8;" vertex="1" parent="1">
          <mxGeometry x="-310" y="419.5" width="255" height="454.5" as="geometry" />
        </mxCell>
        <mxCell id="3Bs7lHJJWiF-RkxHanO7-346" value="#PK" style="strokeColor=none;part=1;resizeHeight=0;verticalAlign=top;spacingLeft=4;spacingRight=4;overflow=hidden;rotatable=0;points=[[0,0.5],[1,0.5]];portConstraint=eastwest;html=1;swimlaneFillColor=#ffffff;whiteSpace=wrap;fontSize=18.3;fontColor=#333333;align=center;fillColor=none;strokeOpacity=100;" vertex="1" parent="3Bs7lHJJWiF-RkxHanO7-345">
          <mxGeometry y="33.75" width="30" height="29.25" as="geometry" />
        </mxCell>
        <mxCell id="3Bs7lHJJWiF-RkxHanO7-347" value="id (Manual) : String" style="shape=partialRectangle;top=0;right=0;bottom=0;part=1;resizeHeight=0;verticalAlign=top;spacingLeft=4;spacingRight=4;overflow=hidden;rotatable=0;points=[[0,0.5],[1,0.5]];portConstraint=eastwest;html=1;swimlaneFillColor=#ffffff;whiteSpace=wrap;fontSize=16.7;fontColor=#333333;align=center;fillColor=none;strokeOpacity=100;" vertex="1" parent="3Bs7lHJJWiF-RkxHanO7-345">
          <mxGeometry x="30" y="33.75" width="225" height="27.75" as="geometry" />
        </mxCell>
        <mxCell id="3Bs7lHJJWiF-RkxHanO7-348" value="*" style="strokeColor=none;part=1;resizeHeight=0;verticalAlign=top;spacingLeft=4;spacingRight=4;overflow=hidden;rotatable=0;points=[[0,0.5],[1,0.5]];portConstraint=eastwest;html=1;swimlaneFillColor=#ffffff;whiteSpace=wrap;fontSize=26.8;align=center;fillColor=none;strokeOpacity=100;" vertex="1" parent="3Bs7lHJJWiF-RkxHanO7-345">
          <mxGeometry y="63" width="30" height="39.75" as="geometry" />
        </mxCell>
        <mxCell id="3Bs7lHJJWiF-RkxHanO7-349" value="primer_nombre : String" style="shape=partialRectangle;top=0;right=0;bottom=0;part=1;resizeHeight=0;verticalAlign=top;spacingLeft=4;spacingRight=4;overflow=hidden;rotatable=0;points=[[0,0.5],[1,0.5]];portConstraint=eastwest;html=1;swimlaneFillColor=#ffffff;whiteSpace=wrap;fontSize=16.7;fontColor=#333333;align=center;fillColor=none;strokeOpacity=100;" vertex="1" parent="3Bs7lHJJWiF-RkxHanO7-345">
          <mxGeometry x="30" y="63" width="225" height="27.75" as="geometry" />
        </mxCell>
        <mxCell id="3Bs7lHJJWiF-RkxHanO7-350" value="Â°" style="strokeColor=none;part=1;resizeHeight=0;verticalAlign=top;spacingLeft=4;spacingRight=4;overflow=hidden;rotatable=0;points=[[0,0.5],[1,0.5]];portConstraint=eastwest;html=1;swimlaneFillColor=#ffffff;whiteSpace=wrap;fontSize=26.8;align=center;fillColor=none;strokeOpacity=100;" vertex="1" parent="3Bs7lHJJWiF-RkxHanO7-345">
          <mxGeometry y="102.75" width="30" height="39.75" as="geometry" />
        </mxCell>
        <mxCell id="3Bs7lHJJWiF-RkxHanO7-351" value="segundo_nombre : String" style="shape=partialRectangle;top=0;right=0;bottom=0;part=1;resizeHeight=0;verticalAlign=top;spacingLeft=4;spacingRight=4;overflow=hidden;rotatable=0;points=[[0,0.5],[1,0.5]];portConstraint=eastwest;html=1;swimlaneFillColor=#ffffff;whiteSpace=wrap;fontSize=16.7;fontColor=#333333;align=center;fillColor=none;strokeOpacity=100;" vertex="1" parent="3Bs7lHJJWiF-RkxHanO7-345">
          <mxGeometry x="30" y="102.75" width="225" height="27.75" as="geometry" />
        </mxCell>
        <mxCell id="3Bs7lHJJWiF-RkxHanO7-352" value="*" style="strokeColor=none;part=1;resizeHeight=0;align=center;verticalAlign=top;spacingLeft=4;spacingRight=4;overflow=hidden;rotatable=0;points=[[0,0.5],[1,0.5]];portConstraint=eastwest;html=1;swimlaneFillColor=#ffffff;whiteSpace=wrap;fontSize=26.8;fillColor=none;strokeOpacity=100;" vertex="1" parent="3Bs7lHJJWiF-RkxHanO7-345">
          <mxGeometry y="142.5" width="30" height="39.75" as="geometry" />
        </mxCell>
        <mxCell id="3Bs7lHJJWiF-RkxHanO7-353" value="primer_apellido: String" style="shape=partialRectangle;top=0;right=0;bottom=0;part=1;resizeHeight=0;verticalAlign=top;spacingLeft=4;spacingRight=4;overflow=hidden;rotatable=0;points=[[0,0.5],[1,0.5]];portConstraint=eastwest;html=1;swimlaneFillColor=#ffffff;whiteSpace=wrap;fontSize=16.8;align=center;fillColor=none;strokeOpacity=100;" vertex="1" parent="3Bs7lHJJWiF-RkxHanO7-345">
          <mxGeometry x="30" y="142.5" width="225" height="27.75" as="geometry" />
        </mxCell>
        <mxCell id="3Bs7lHJJWiF-RkxHanO7-354" value="Â°" style="strokeColor=none;part=1;resizeHeight=0;align=center;verticalAlign=top;spacingLeft=4;spacingRight=4;overflow=hidden;rotatable=0;points=[[0,0.5],[1,0.5]];portConstraint=eastwest;html=1;swimlaneFillColor=#ffffff;whiteSpace=wrap;fontSize=26.8;fillColor=none;strokeOpacity=100;" vertex="1" parent="3Bs7lHJJWiF-RkxHanO7-345">
          <mxGeometry y="182.25" width="30" height="39.75" as="geometry" />
        </mxCell>
        <mxCell id="3Bs7lHJJWiF-RkxHanO7-355" value="segundo_apellido: String" style="shape=partialRectangle;top=0;right=0;bottom=0;part=1;resizeHeight=0;verticalAlign=top;spacingLeft=4;spacingRight=4;overflow=hidden;rotatable=0;points=[[0,0.5],[1,0.5]];portConstraint=eastwest;html=1;swimlaneFillColor=#ffffff;whiteSpace=wrap;fontSize=16.8;align=center;fillColor=none;strokeOpacity=100;" vertex="1" parent="3Bs7lHJJWiF-RkxHanO7-345">
          <mxGeometry x="30" y="182.25" width="225" height="27.75" as="geometry" />
        </mxCell>
        <mxCell id="3Bs7lHJJWiF-RkxHanO7-356" value="*" style="strokeColor=none;part=1;resizeHeight=0;align=center;verticalAlign=top;spacingLeft=4;spacingRight=4;overflow=hidden;rotatable=0;points=[[0,0.5],[1,0.5]];portConstraint=eastwest;html=1;swimlaneFillColor=#ffffff;whiteSpace=wrap;fontSize=26.8;fillColor=none;strokeOpacity=100;" vertex="1" parent="3Bs7lHJJWiF-RkxHanO7-345">
          <mxGeometry y="222" width="30" height="39.75" as="geometry" />
        </mxCell>
        <mxCell id="3Bs7lHJJWiF-RkxHanO7-357" value="tipo_documento: String" style="shape=partialRectangle;top=0;right=0;bottom=0;part=1;resizeHeight=0;verticalAlign=top;spacingLeft=4;spacingRight=4;overflow=hidden;rotatable=0;points=[[0,0.5],[1,0.5]];portConstraint=eastwest;html=1;swimlaneFillColor=#ffffff;whiteSpace=wrap;fontSize=16.8;align=center;fillColor=none;strokeOpacity=100;" vertex="1" parent="3Bs7lHJJWiF-RkxHanO7-345">
          <mxGeometry x="30" y="222" width="225" height="27.75" as="geometry" />
        </mxCell>
        <mxCell id="3Bs7lHJJWiF-RkxHanO7-358" value="*" style="strokeColor=none;part=1;resizeHeight=0;align=center;verticalAlign=top;spacingLeft=4;spacingRight=4;overflow=hidden;rotatable=0;points=[[0,0.5],[1,0.5]];portConstraint=eastwest;html=1;swimlaneFillColor=#ffffff;whiteSpace=wrap;fontSize=26.8;fillColor=none;strokeOpacity=100;" vertex="1" parent="3Bs7lHJJWiF-RkxHanO7-345">
          <mxGeometry y="261.75" width="30" height="39.75" as="geometry" />
        </mxCell>
        <mxCell id="3Bs7lHJJWiF-RkxHanO7-359" value="documento: String" style="shape=partialRectangle;top=0;right=0;bottom=0;part=1;resizeHeight=0;verticalAlign=top;spacingLeft=4;spacingRight=4;overflow=hidden;rotatable=0;points=[[0,0.5],[1,0.5]];portConstraint=eastwest;html=1;swimlaneFillColor=#ffffff;whiteSpace=wrap;fontSize=16.8;align=center;fillColor=none;strokeOpacity=100;" vertex="1" parent="3Bs7lHJJWiF-RkxHanO7-345">
          <mxGeometry x="30" y="261.75" width="225" height="27.75" as="geometry" />
        </mxCell>
        <mxCell id="3Bs7lHJJWiF-RkxHanO7-361" value="telefono: String" style="shape=partialRectangle;top=0;right=0;bottom=0;part=1;resizeHeight=0;verticalAlign=top;spacingLeft=4;spacingRight=4;overflow=hidden;rotatable=0;points=[[0,0.5],[1,0.5]];portConstraint=eastwest;html=1;swimlaneFillColor=#ffffff;whiteSpace=wrap;fontSize=16.8;align=center;fillColor=none;strokeOpacity=100;" vertex="1" parent="3Bs7lHJJWiF-RkxHanO7-345">
          <mxGeometry x="30" y="301.5" width="225" height="27.75" as="geometry" />
        </mxCell>
        <mxCell id="3Bs7lHJJWiF-RkxHanO7-362" value="Â°" style="strokeColor=none;part=1;resizeHeight=0;align=center;verticalAlign=top;spacingLeft=4;spacingRight=4;overflow=hidden;rotatable=0;points=[[0,0.5],[1,0.5]];portConstraint=eastwest;html=1;swimlaneFillColor=#ffffff;whiteSpace=wrap;fontSize=26.8;fillColor=none;strokeOpacity=100;" vertex="1" parent="3Bs7lHJJWiF-RkxHanO7-345">
          <mxGeometry y="333" width="30" height="39.75" as="geometry" />
        </mxCell>
        <mxCell id="3Bs7lHJJWiF-RkxHanO7-363" value="email : String" style="shape=partialRectangle;top=0;right=0;bottom=0;part=1;resizeHeight=0;verticalAlign=top;spacingLeft=4;spacingRight=4;overflow=hidden;rotatable=0;points=[[0,0.5],[1,0.5]];portConstraint=eastwest;html=1;swimlaneFillColor=#ffffff;whiteSpace=wrap;fontSize=16.8;align=center;fillColor=none;strokeOpacity=100;" vertex="1" parent="3Bs7lHJJWiF-RkxHanO7-345">
          <mxGeometry x="30" y="333" width="225" height="27.75" as="geometry" />
        </mxCell>
        <mxCell id="3Bs7lHJJWiF-RkxHanO7-364" value="&lt;div style=&quot;display: flex; justify-content: center; text-align: center; align-items: baseline; font-size: 0; line-height: 1.25;margin-top: -2px;&quot;&gt;&lt;span&gt;Â°&lt;br&gt;&lt;/span&gt;&lt;/div&gt;" style="strokeColor=none;part=1;resizeHeight=0;align=center;verticalAlign=top;spacingLeft=4;spacingRight=4;overflow=hidden;rotatable=0;points=[[0,0.5],[1,0.5]];portConstraint=eastwest;html=1;swimlaneFillColor=#ffffff;whiteSpace=wrap;fontSize=26.8;fillColor=none;strokeOpacity=100;" vertex="1" parent="3Bs7lHJJWiF-RkxHanO7-345">
          <mxGeometry y="372.75" width="30" height="39.75" as="geometry" />
        </mxCell>
        <mxCell id="3Bs7lHJJWiF-RkxHanO7-365" value="Â°" style="strokeColor=none;part=1;resizeHeight=0;align=center;verticalAlign=top;spacingLeft=4;spacingRight=4;overflow=hidden;rotatable=0;points=[[0,0.5],[1,0.5]];portConstraint=eastwest;html=1;swimlaneFillColor=#ffffff;whiteSpace=wrap;fontSize=26.7;fillColor=none;strokeOpacity=100;" vertex="1" parent="3Bs7lHJJWiF-RkxHanO7-345">
          <mxGeometry y="390" width="30" height="30" as="geometry" />
        </mxCell>
        <mxCell id="3Bs7lHJJWiF-RkxHanO7-366" value="celular: String" style="shape=partialRectangle;top=0;right=0;bottom=0;part=1;resizeHeight=0;verticalAlign=top;spacingLeft=4;spacingRight=4;overflow=hidden;rotatable=0;points=[[0,0.5],[1,0.5]];portConstraint=eastwest;html=1;swimlaneFillColor=#ffffff;whiteSpace=wrap;fontSize=18.3;align=center;fillColor=none;strokeOpacity=100;" vertex="1" parent="3Bs7lHJJWiF-RkxHanO7-345">
          <mxGeometry x="30" y="390" width="225" height="51.75" as="geometry" />
        </mxCell>
        <mxCell id="3Bs7lHJJWiF-RkxHanO7-375" value="direccion: String" style="shape=partialRectangle;top=0;right=0;bottom=0;part=1;resizeHeight=0;verticalAlign=top;spacingLeft=4;spacingRight=4;overflow=hidden;rotatable=0;points=[[0,0.5],[1,0.5]];portConstraint=eastwest;html=1;swimlaneFillColor=#ffffff;whiteSpace=wrap;fontSize=16.8;align=center;fillColor=none;strokeOpacity=100;" vertex="1" parent="3Bs7lHJJWiF-RkxHanO7-345">
          <mxGeometry x="30" y="360" width="225" height="30" as="geometry" />
        </mxCell>
        <mxCell id="3Bs7lHJJWiF-RkxHanO7-376" value="Â°" style="strokeColor=none;part=1;resizeHeight=0;align=center;verticalAlign=top;spacingLeft=4;spacingRight=4;overflow=hidden;rotatable=0;points=[[0,0.5],[1,0.5]];portConstraint=eastwest;html=1;swimlaneFillColor=#ffffff;whiteSpace=wrap;fontSize=26.8;fillColor=none;strokeOpacity=100;" vertex="1" parent="3Bs7lHJJWiF-RkxHanO7-345">
          <mxGeometry y="360" width="30" height="30" as="geometry" />
        </mxCell>
        <mxCell id="3Bs7lHJJWiF-RkxHanO7-410" value="Â°" style="strokeColor=none;part=1;resizeHeight=0;align=center;verticalAlign=top;spacingLeft=4;spacingRight=4;overflow=hidden;rotatable=0;points=[[0,0.5],[1,0.5]];portConstraint=eastwest;html=1;swimlaneFillColor=#ffffff;whiteSpace=wrap;fontSize=26.8;fillColor=none;strokeOpacity=100;" vertex="1" parent="3Bs7lHJJWiF-RkxHanO7-345">
          <mxGeometry y="299.5" width="30" height="39.75" as="geometry" />
        </mxCell>
        <mxCell id="3Bs7lHJJWiF-RkxHanO7-411" value="estado: enum" style="shape=partialRectangle;top=0;right=0;bottom=0;part=1;resizeHeight=0;verticalAlign=top;spacingLeft=4;spacingRight=4;overflow=hidden;rotatable=0;points=[[0,0.5],[1,0.5]];portConstraint=eastwest;html=1;swimlaneFillColor=#ffffff;whiteSpace=wrap;fontSize=18.3;align=center;fillColor=none;strokeOpacity=100;" vertex="1" parent="3Bs7lHJJWiF-RkxHanO7-345">
          <mxGeometry x="30" y="420" width="225" height="30" as="geometry" />
        </mxCell>
        <mxCell id="3Bs7lHJJWiF-RkxHanO7-412" value="*" style="strokeColor=none;part=1;resizeHeight=0;align=center;verticalAlign=top;spacingLeft=4;spacingRight=4;overflow=hidden;rotatable=0;points=[[0,0.5],[1,0.5]];portConstraint=eastwest;html=1;swimlaneFillColor=#ffffff;whiteSpace=wrap;fontSize=26.7;fillColor=none;strokeOpacity=100;" vertex="1" parent="3Bs7lHJJWiF-RkxHanO7-345">
          <mxGeometry y="420" width="30" height="30" as="geometry" />
        </mxCell>
        <mxCell id="3Bs7lHJJWiF-RkxHanO7-414" value="*" style="strokeColor=none;part=1;resizeHeight=0;align=center;verticalAlign=top;spacingLeft=4;spacingRight=4;overflow=hidden;rotatable=0;points=[[0,0.5],[1,0.5]];portConstraint=eastwest;html=1;swimlaneFillColor=#ffffff;whiteSpace=wrap;fontSize=26.8;fillColor=none;strokeOpacity=100;" vertex="1" parent="1">
          <mxGeometry x="-719" y="1035.5" width="30" height="39.75" as="geometry" />
        </mxCell>
        <mxCell id="3Bs7lHJJWiF-RkxHanO7-415" value="CANTIDAD_PRODUCTOS" style="html=1;overflow=block;blockSpacing=1;swimlane;resizeParent=1;resizeParentMax=0;resizeLast=0;collapsible=0;marginBottom=0;swimlaneFillColor=#ffffff;startSize=31.5;whiteSpace=wrap;fontSize=20;fontColor=#333333;fontStyle=1;align=center;spacing=0;strokeColor=#5e5e5e;strokeOpacity=100;rounded=1;absoluteArcSize=1;arcSize=9;strokeWidth=2.3;" vertex="1" parent="1">
          <mxGeometry x="-425" y="43" width="285" height="134" as="geometry" />
        </mxCell>
        <mxCell id="3Bs7lHJJWiF-RkxHanO7-416" value="#PK" style="strokeColor=none;part=1;resizeHeight=0;verticalAlign=top;spacingLeft=4;spacingRight=4;overflow=hidden;rotatable=0;points=[[0,0.5],[1,0.5]];portConstraint=eastwest;html=1;swimlaneFillColor=#ffffff;whiteSpace=wrap;fontSize=16.7;fontColor=#333333;align=center;fillColor=none;strokeOpacity=100;" vertex="1" parent="3Bs7lHJJWiF-RkxHanO7-415">
          <mxGeometry y="31.5" width="30" height="27.75" as="geometry" />
        </mxCell>
        <mxCell id="3Bs7lHJJWiF-RkxHanO7-417" value="id (Autoincreme): Int" style="shape=partialRectangle;top=0;right=0;bottom=0;part=1;resizeHeight=0;verticalAlign=top;spacingLeft=4;spacingRight=4;overflow=hidden;rotatable=0;points=[[0,0.5],[1,0.5]];portConstraint=eastwest;html=1;swimlaneFillColor=#ffffff;whiteSpace=wrap;fontSize=18.3;fontColor=#333333;align=center;fillColor=none;strokeOpacity=100;" vertex="1" parent="3Bs7lHJJWiF-RkxHanO7-415">
          <mxGeometry x="30" y="31.5" width="255" height="29.25" as="geometry" />
        </mxCell>
        <mxCell id="3Bs7lHJJWiF-RkxHanO7-418" value="*" style="strokeColor=none;part=1;resizeHeight=0;verticalAlign=top;spacingLeft=4;spacingRight=4;overflow=hidden;rotatable=0;points=[[0,0.5],[1,0.5]];portConstraint=eastwest;html=1;swimlaneFillColor=#ffffff;whiteSpace=wrap;fontSize=26.7;fontColor=#333333;align=center;fillColor=none;strokeOpacity=100;" vertex="1" parent="3Bs7lHJJWiF-RkxHanO7-415">
          <mxGeometry y="70" width="30" height="29" as="geometry" />
        </mxCell>
        <mxCell id="3Bs7lHJJWiF-RkxHanO7-419" value="*" style="strokeColor=none;part=1;resizeHeight=0;align=center;verticalAlign=top;spacingLeft=4;spacingRight=4;overflow=hidden;rotatable=0;points=[[0,0.5],[1,0.5]];portConstraint=eastwest;html=1;swimlaneFillColor=#ffffff;whiteSpace=wrap;fontSize=26.8;fillColor=none;strokeOpacity=100;" vertex="1" parent="3Bs7lHJJWiF-RkxHanO7-415">
          <mxGeometry y="100" width="30" height="40" as="geometry" />
        </mxCell>
        <mxCell id="3Bs7lHJJWiF-RkxHanO7-420" value="cantidad : int" style="shape=partialRectangle;top=0;right=0;bottom=0;part=1;resizeHeight=0;verticalAlign=top;spacingLeft=4;spacingRight=4;overflow=hidden;rotatable=0;points=[[0,0.5],[1,0.5]];portConstraint=eastwest;html=1;swimlaneFillColor=#ffffff;whiteSpace=wrap;fontSize=18.5;align=center;fillColor=none;strokeOpacity=100;" vertex="1" parent="3Bs7lHJJWiF-RkxHanO7-415">
          <mxGeometry x="30" y="100" width="255" height="30" as="geometry" />
        </mxCell>
        <mxCell id="3Bs7lHJJWiF-RkxHanO7-421" value="producto : Producto" style="shape=partialRectangle;top=0;right=0;bottom=0;part=1;resizeHeight=0;verticalAlign=top;spacingLeft=4;spacingRight=4;overflow=hidden;rotatable=0;points=[[0,0.5],[1,0.5]];portConstraint=eastwest;html=1;swimlaneFillColor=#ffffff;whiteSpace=wrap;fontSize=18.5;align=center;fillColor=none;strokeOpacity=100;" vertex="1" parent="3Bs7lHJJWiF-RkxHanO7-415">
          <mxGeometry x="30" y="66.5" width="255" height="30" as="geometry" />
        </mxCell>
        <mxCell id="3Bs7lHJJWiF-RkxHanO7-445" value="CICLO_CONTRATACION" style="html=1;overflow=block;blockSpacing=1;swimlane;resizeParent=1;resizeParentMax=0;resizeLast=0;collapsible=0;marginBottom=0;swimlaneFillColor=#ffffff;startSize=31.5;whiteSpace=wrap;fontSize=20;fontColor=#333333;fontStyle=1;align=center;spacing=0;strokeColor=#5e5e5e;strokeOpacity=100;rounded=1;absoluteArcSize=1;arcSize=9;strokeWidth=2.3;" vertex="1" parent="1">
          <mxGeometry x="60" y="320" width="350" height="230" as="geometry" />
        </mxCell>
        <mxCell id="3Bs7lHJJWiF-RkxHanO7-446" value="#PK" style="strokeColor=none;part=1;resizeHeight=0;verticalAlign=top;spacingLeft=4;spacingRight=4;overflow=hidden;rotatable=0;points=[[0,0.5],[1,0.5]];portConstraint=eastwest;html=1;swimlaneFillColor=#ffffff;whiteSpace=wrap;fontSize=16.7;fontColor=#333333;align=center;fillColor=none;strokeOpacity=100;" vertex="1" parent="3Bs7lHJJWiF-RkxHanO7-445">
          <mxGeometry y="31.5" width="30" height="27.75" as="geometry" />
        </mxCell>
        <mxCell id="3Bs7lHJJWiF-RkxHanO7-447" value="id (Autoincreme): String" style="shape=partialRectangle;top=0;right=0;bottom=0;part=1;resizeHeight=0;verticalAlign=top;spacingLeft=4;spacingRight=4;overflow=hidden;rotatable=0;points=[[0,0.5],[1,0.5]];portConstraint=eastwest;html=1;swimlaneFillColor=#ffffff;whiteSpace=wrap;fontSize=18.3;fontColor=#333333;align=center;fillColor=none;strokeOpacity=100;" vertex="1" parent="3Bs7lHJJWiF-RkxHanO7-445">
          <mxGeometry x="30" y="31.5" width="310" height="29.25" as="geometry" />
        </mxCell>
        <mxCell id="3Bs7lHJJWiF-RkxHanO7-448" value="*" style="strokeColor=none;part=1;resizeHeight=0;verticalAlign=top;spacingLeft=4;spacingRight=4;overflow=hidden;rotatable=0;points=[[0,0.5],[1,0.5]];portConstraint=eastwest;html=1;swimlaneFillColor=#ffffff;whiteSpace=wrap;fontSize=26.7;fontColor=#333333;align=center;fillColor=none;strokeOpacity=100;" vertex="1" parent="3Bs7lHJJWiF-RkxHanO7-445">
          <mxGeometry y="59.25" width="30" height="39.75" as="geometry" />
        </mxCell>
        <mxCell id="3Bs7lHJJWiF-RkxHanO7-449" value="fecha_inicio: Date" style="shape=partialRectangle;top=0;right=0;bottom=0;part=1;resizeHeight=0;verticalAlign=top;spacingLeft=4;spacingRight=4;overflow=hidden;rotatable=0;points=[[0,0.5],[1,0.5]];portConstraint=eastwest;html=1;swimlaneFillColor=#ffffff;whiteSpace=wrap;fontSize=18.3;fontColor=#333333;align=center;fillColor=none;strokeOpacity=100;" vertex="1" parent="3Bs7lHJJWiF-RkxHanO7-445">
          <mxGeometry x="30" y="59.25" width="310" height="29.25" as="geometry" />
        </mxCell>
        <mxCell id="3Bs7lHJJWiF-RkxHanO7-450" value="*" style="strokeColor=none;part=1;resizeHeight=0;align=center;verticalAlign=top;spacingLeft=4;spacingRight=4;overflow=hidden;rotatable=0;points=[[0,0.5],[1,0.5]];portConstraint=eastwest;html=1;swimlaneFillColor=#ffffff;whiteSpace=wrap;fontSize=26.8;fillColor=none;strokeOpacity=100;" vertex="1" parent="3Bs7lHJJWiF-RkxHanO7-445">
          <mxGeometry y="99" width="30" height="39.75" as="geometry" />
        </mxCell>
        <mxCell id="3Bs7lHJJWiF-RkxHanO7-451" value="fecha_final: Date" style="shape=partialRectangle;top=0;right=0;bottom=0;part=1;resizeHeight=0;verticalAlign=top;spacingLeft=4;spacingRight=4;overflow=hidden;rotatable=0;points=[[0,0.5],[1,0.5]];portConstraint=eastwest;html=1;swimlaneFillColor=#ffffff;whiteSpace=wrap;fontSize=18.5;align=center;fillColor=none;strokeOpacity=100;" vertex="1" parent="3Bs7lHJJWiF-RkxHanO7-445">
          <mxGeometry x="30" y="99" width="320" height="30" as="geometry" />
        </mxCell>
        <mxCell id="3Bs7lHJJWiF-RkxHanO7-452" value="Â°" style="strokeColor=none;part=1;resizeHeight=0;align=center;verticalAlign=top;spacingLeft=4;spacingRight=4;overflow=hidden;rotatable=0;points=[[0,0.5],[1,0.5]];portConstraint=eastwest;html=1;swimlaneFillColor=#ffffff;whiteSpace=wrap;fontSize=26.8;fillColor=none;strokeOpacity=100;" vertex="1" parent="3Bs7lHJJWiF-RkxHanO7-445">
          <mxGeometry y="138.75" width="30" height="39.75" as="geometry" />
        </mxCell>
        <mxCell id="3Bs7lHJJWiF-RkxHanO7-453" value="cotizaciones : Cotizacion [ ]" style="shape=partialRectangle;top=0;right=0;bottom=0;part=1;resizeHeight=0;verticalAlign=top;spacingLeft=4;spacingRight=4;overflow=hidden;rotatable=0;points=[[0,0.5],[1,0.5]];portConstraint=eastwest;html=1;swimlaneFillColor=#ffffff;whiteSpace=wrap;fontSize=18.5;align=center;fillColor=none;strokeOpacity=100;" vertex="1" parent="3Bs7lHJJWiF-RkxHanO7-445">
          <mxGeometry x="30" y="138.75" width="310" height="30" as="geometry" />
        </mxCell>
        <mxCell id="3Bs7lHJJWiF-RkxHanO7-458" value="usuario: Usuario" style="shape=partialRectangle;top=0;right=0;bottom=0;part=1;resizeHeight=0;verticalAlign=top;spacingLeft=4;spacingRight=4;overflow=hidden;rotatable=0;points=[[0,0.5],[1,0.5]];portConstraint=eastwest;html=1;swimlaneFillColor=#ffffff;whiteSpace=wrap;fontSize=18.5;align=center;fillColor=none;strokeOpacity=100;" vertex="1" parent="3Bs7lHJJWiF-RkxHanO7-445">
          <mxGeometry x="30" y="170" width="310" height="30" as="geometry" />
        </mxCell>
        <mxCell id="3Bs7lHJJWiF-RkxHanO7-459" value="entidad: Entidad" style="shape=partialRectangle;top=0;right=0;bottom=0;part=1;resizeHeight=0;verticalAlign=top;spacingLeft=4;spacingRight=4;overflow=hidden;rotatable=0;points=[[0,0.5],[1,0.5]];portConstraint=eastwest;html=1;swimlaneFillColor=#ffffff;whiteSpace=wrap;fontSize=18.5;align=center;fillColor=none;strokeOpacity=100;" vertex="1" parent="3Bs7lHJJWiF-RkxHanO7-445">
          <mxGeometry x="30" y="200" width="310" height="30" as="geometry" />
        </mxCell>
        <mxCell id="3Bs7lHJJWiF-RkxHanO7-460" value="Â°" style="strokeColor=none;part=1;resizeHeight=0;align=center;verticalAlign=top;spacingLeft=4;spacingRight=4;overflow=hidden;rotatable=0;points=[[0,0.5],[1,0.5]];portConstraint=eastwest;html=1;swimlaneFillColor=#ffffff;whiteSpace=wrap;fontSize=26.8;fillColor=none;strokeOpacity=100;" vertex="1" parent="3Bs7lHJJWiF-RkxHanO7-445">
          <mxGeometry y="170" width="30" height="39.75" as="geometry" />
        </mxCell>
        <mxCell id="3Bs7lHJJWiF-RkxHanO7-461" value="Â°" style="strokeColor=none;part=1;resizeHeight=0;align=center;verticalAlign=top;spacingLeft=4;spacingRight=4;overflow=hidden;rotatable=0;points=[[0,0.5],[1,0.5]];portConstraint=eastwest;html=1;swimlaneFillColor=#ffffff;whiteSpace=wrap;fontSize=26.8;fillColor=none;strokeOpacity=100;" vertex="1" parent="3Bs7lHJJWiF-RkxHanO7-445">
          <mxGeometry y="200" width="30" height="39.75" as="geometry" />
        </mxCell>
      </root>
    </mxGraphModel>
  </diagram>
</mxfile>
